<?xml version="1.0" encoding="UTF-8"?>
<svg width="448px" height="68px" viewBox="0 0 448 68" version="1.1" xmlns="http://www.w3.org/2000/svg" xmlns:xlink="http://www.w3.org/1999/xlink">
    <!-- Generator: Sketch 50.2 (55047) - http://www.bohemiancoding.com/sketch -->
    <title>Group</title>
    <desc>Created with Sketch.</desc>
    <defs></defs>
    <g id="Page-1" stroke="none" stroke-width="1" fill="none" fill-rule="evenodd">
        <g id="Group" transform="translate(0.000000, -21.000000)" fill="#FFFFFF">
            <text id="WEIGHTY" font-family="AvenirNext-Regular, Avenir Next" font-size="83" font-weight="normal" letter-spacing="-0.122518063">
                <tspan x="77" y="83">WEIGHTY</tspan>
            </text>
            <g id="1ce2fd77cb0e529e2c53906d641b836d" transform="translate(0.000000, 21.000000)" fill-rule="nonzero">
                <path d="M2.83102041,11.1853061 C2.83102041,6.59183673 6.59183673,2.83102041 11.1991837,2.83102041 L56.8008163,2.83102041 C61.4081633,2.83102041 65.1689796,6.59183673 65.1689796,11.1783673 L65.1689796,56.7938776 C65.1689796,61.4012245 61.4081633,65.1620408 56.8008163,65.1620408 L11.1991837,65.1620408 C6.59183673,65.1689796 2.83102041,61.4081633 2.83102041,56.8008163 L2.83102041,11.1853061 Z M11.1991837,68 L56.8008163,68 C62.9763265,68 68,62.9763265 68,56.8008163 L68,11.1853061 C68,5.02367347 62.9763265,0 56.8008163,0 L11.1853061,0 C5.02367347,0 0,5.02367347 0,11.1853061 L0,56.8008163 C0,62.9763265 5.02367347,68 11.1991837,68 Z" id="Shape"></path>
                <path d="M21.9681633,11.3310204 C23.6126531,12.7465306 25.4653061,13.8428571 27.4497959,14.5783673 L24.5771429,20.3236735 C24.2371429,21.0383673 24.5216327,21.8918367 25.222449,22.2318367 C25.9163265,22.5926531 26.7697959,22.3081633 27.1306122,21.6073469 L30.2461224,15.3763265 C31.4742857,15.64 32.7232653,15.7718367 34.0069388,15.7718367 C38.482449,15.7718367 42.6942857,14.2036735 46.0387755,11.3310204 L54.4,19.6853061 C48.8073469,24.7853061 41.6326531,27.5816327 34,27.5816327 C26.3673469,27.5816327 19.1926531,24.7853061 13.6,19.6853061 L21.9681633,11.3310204 Z M34,30.4126531 C42.8608163,30.4126531 51.1665306,26.9710204 57.4183673,20.7261224 C57.9665306,20.1571429 57.9665306,19.2689796 57.4183673,18.7208163 L47.0726531,8.36816327 C46.8089796,8.08367347 46.4273469,7.95183673 46.0734694,7.95183673 C45.7126531,7.95183673 45.3587755,8.08367347 45.0742857,8.36816327 C42.1253061,11.3171429 38.1979592,12.9408163 34.0069388,12.9408163 C29.8159184,12.9408163 25.8885714,11.3171429 22.9395918,8.36816327 C22.3706122,7.79918367 21.4893878,7.79918367 20.9412245,8.36816327 L10.5816327,18.7208163 C10.0126531,19.2689796 10.0126531,20.1571429 10.5816327,20.7261224 C16.8126531,26.9710204 25.1391837,30.4126531 34,30.4126531 Z" id="Shape"></path>
            </g>
        </g>
    </g>
</svg>